<svg width="870" height="1024" viewBox="0 0 870 1024" fill="none" xmlns="http://www.w3.org/2000/svg">
<path d="M609.733 739.109L563.437 723.39C562.26 723.003 561.172 722.385 560.238 721.571C559.304 720.758 558.542 719.766 557.997 718.653C557.452 717.541 557.135 716.33 557.065 715.093C556.995 713.856 557.173 712.618 557.588 711.451V711.451C558.385 709.102 560.082 707.167 562.305 706.07C564.529 704.973 567.096 704.804 569.444 705.601L615.753 721.333C618.099 722.134 620.031 723.831 621.127 726.054C622.223 728.277 622.394 730.844 621.601 733.193V733.193C621.214 734.363 620.598 735.445 619.791 736.376C618.984 737.308 618 738.07 616.897 738.62C615.794 739.17 614.593 739.496 613.364 739.58C612.134 739.664 610.9 739.504 609.733 739.109V739.109Z" stroke="white" stroke-width="4" stroke-miterlimit="10"/>
<path d="M603.646 757.044L557.35 741.378C556.173 740.991 555.085 740.373 554.151 739.559C553.217 738.746 552.455 737.754 551.91 736.641C551.365 735.529 551.048 734.318 550.978 733.081C550.908 731.844 551.086 730.606 551.501 729.439V729.439C551.888 728.271 552.504 727.191 553.311 726.264C554.119 725.336 555.103 724.577 556.206 724.033C557.309 723.489 558.509 723.169 559.737 723.093C560.965 723.017 562.195 723.185 563.357 723.589L609.666 739.308C612.015 740.108 613.95 741.808 615.046 744.034C616.143 746.26 616.311 748.831 615.515 751.181V751.181C614.717 753.532 613.019 755.471 610.794 756.57C608.568 757.67 605.997 757.84 603.646 757.044V757.044Z" stroke="white" stroke-width="4" stroke-miterlimit="10"/>
<path d="M562.482 657.274C562.482 657.42 562.575 657.579 562.628 657.725C567.15 673.113 568.708 689.22 567.216 705.189L616.894 721.585C625.207 707.875 636.042 695.866 648.827 686.193L649.225 685.915C650.551 684.933 651.877 683.911 653.204 682.81C660.746 676.273 666.42 667.852 669.648 658.406C672.876 648.96 673.543 638.827 671.58 629.039C669.617 619.251 665.095 610.159 658.475 602.689C651.854 595.22 643.372 589.639 633.893 586.517C624.414 583.395 614.276 582.843 604.515 584.918C594.753 586.992 585.715 591.618 578.323 598.325C570.931 605.031 565.449 613.579 562.435 623.096C559.422 632.612 558.985 642.758 561.169 652.499C561.527 654.064 561.978 655.683 562.482 657.274Z" stroke="white" stroke-width="4" stroke-miterlimit="10"/>
<path d="M559.882 742.399C559.616 747.26 560.947 752.074 563.672 756.107C566.397 760.14 570.366 763.17 574.974 764.735C579.582 766.3 584.575 766.314 589.192 764.774C593.809 763.235 597.795 760.226 600.542 756.208L559.882 742.399Z" stroke="white" stroke-width="4" stroke-miterlimit="10"/>
<path d="M582.771 710.071L597.518 665.327C598.045 663.751 598.092 662.054 597.654 660.452C597.217 658.849 596.314 657.412 595.059 656.323C593.805 655.234 592.256 654.542 590.608 654.334C588.961 654.125 587.288 654.411 585.803 655.154C584.317 655.897 583.085 657.064 582.263 658.507C581.441 659.951 581.065 661.606 581.183 663.263C581.302 664.92 581.909 666.505 582.928 667.817C583.948 669.129 585.333 670.109 586.909 670.633L604.626 676.483" stroke="white" stroke-width="4" stroke-miterlimit="10"/>
<path d="M602.253 716.505L617.013 671.76C617.537 670.184 618.516 668.798 619.828 667.779C621.139 666.759 622.724 666.152 624.38 666.033C626.037 665.915 627.692 666.29 629.135 667.113C630.578 667.935 631.744 669.168 632.487 670.654C633.23 672.14 633.515 673.813 633.307 675.461C633.099 677.109 632.407 678.659 631.318 679.913C630.23 681.168 628.793 682.071 627.191 682.509C625.589 682.947 623.893 682.899 622.318 682.373L604.6 676.523" stroke="white" stroke-width="4" stroke-miterlimit="10"/>
<path d="M680.323 673.22L695.282 678.168" stroke="white" stroke-width="4" stroke-miterlimit="10" stroke-linecap="round"/>
<path d="M687.192 654.369L702.761 652.021" stroke="white" stroke-width="4" stroke-miterlimit="10" stroke-linecap="round"/>
<path d="M669.86 689.39L680.973 700.56" stroke="white" stroke-width="4" stroke-miterlimit="10" stroke-linecap="round"/>
<path d="M541.395 627.347L526.437 622.413" stroke="white" stroke-width="4" stroke-miterlimit="10" stroke-linecap="round"/>
<path d="M547.098 608.113L535.985 596.943" stroke="white" stroke-width="4" stroke-miterlimit="10" stroke-linecap="round"/>
<path d="M540.189 646.569L524.606 648.917" stroke="white" stroke-width="4" stroke-miterlimit="10" stroke-linecap="round"/>
<path d="M530.694 530.854C546.426 530.854 559.179 518.097 559.179 502.36C559.179 486.623 546.426 473.866 530.694 473.866C514.961 473.866 502.208 486.623 502.208 502.36C502.208 518.097 514.961 530.854 530.694 530.854Z" stroke="white" stroke-width="4" stroke-linecap="round" stroke-linejoin="round"/>
<path d="M123.686 467.79C139.418 467.79 152.172 455.033 152.172 439.296C152.172 423.559 139.418 410.802 123.686 410.802C107.954 410.802 95.2002 423.559 95.2002 439.296C95.2002 455.033 107.954 467.79 123.686 467.79Z" stroke="#FBFBFB" stroke-width="4" stroke-linecap="round" stroke-linejoin="round"/>
<path d="M795.155 659.092C810.887 659.092 823.64 646.334 823.64 630.597C823.64 614.861 810.887 602.103 795.155 602.103C779.422 602.103 766.669 614.861 766.669 630.597C766.669 646.334 779.422 659.092 795.155 659.092Z" stroke="white" stroke-width="4" stroke-linecap="round" stroke-linejoin="round"/>
<path d="M383.226 685.265C398.958 685.265 411.712 672.507 411.712 656.77C411.712 641.033 398.958 628.276 383.226 628.276C367.494 628.276 354.74 641.033 354.74 656.77C354.74 672.507 367.494 685.265 383.226 685.265Z" stroke="white" stroke-width="4" stroke-linecap="round" stroke-linejoin="round"/>
<path d="M570.028 152.072C585.76 152.072 598.513 139.315 598.513 123.578C598.513 107.841 585.76 95.0833 570.028 95.0833C554.296 95.0833 541.542 107.841 541.542 123.578C541.542 139.315 554.296 152.072 570.028 152.072Z" stroke="#FBFBFB" stroke-width="4" stroke-linecap="round" stroke-linejoin="round"/>
<path d="M190.975 645.521C203.733 645.521 214.076 635.175 214.076 622.413C214.076 609.65 203.733 599.304 190.975 599.304C178.216 599.304 167.873 609.65 167.873 622.413C167.873 635.175 178.216 645.521 190.975 645.521Z" stroke="#FBFBFB" stroke-width="4" stroke-linecap="round" stroke-linejoin="round"/>
<path d="M747.108 792.781C759.867 792.781 770.21 782.435 770.21 769.673C770.21 756.91 759.867 746.564 747.108 746.564C734.35 746.564 724.007 756.91 724.007 769.673C724.007 782.435 734.35 792.781 747.108 792.781Z" stroke="white" stroke-width="4" stroke-linecap="round" stroke-linejoin="round"/>
<path d="M500.113 369.374C512.872 369.374 523.215 359.028 523.215 346.265C523.215 333.503 512.872 323.157 500.113 323.157C487.355 323.157 477.012 333.503 477.012 346.265C477.012 359.028 487.355 369.374 500.113 369.374Z" stroke="#FBFBFB" stroke-width="4" stroke-linecap="round" stroke-linejoin="round"/>
<path d="M674.409 28.5304C687.168 28.5304 697.511 18.1844 697.511 5.42194C697.511 -7.34051 687.168 -17.6865 674.409 -17.6865C661.65 -17.6865 651.308 -7.34051 651.308 5.42194C651.308 18.1844 661.65 28.5304 674.409 28.5304Z" stroke="#FBFBFB" stroke-width="4" stroke-linecap="round" stroke-linejoin="round"/>
<path d="M421.141 1052.35C433.899 1052.35 444.242 1042 444.242 1029.24C444.242 1016.48 433.899 1006.13 421.141 1006.13C408.382 1006.13 398.039 1016.48 398.039 1029.24C398.039 1042 408.382 1052.35 421.141 1052.35Z" stroke="white" stroke-width="4" stroke-linecap="round" stroke-linejoin="round"/>
<path d="M291.748 357.66C291.748 359.914 291.08 362.117 289.828 363.991C288.577 365.865 286.797 367.325 284.716 368.188C282.634 369.05 280.344 369.276 278.134 368.836C275.924 368.397 273.895 367.311 272.301 365.718C270.708 364.124 269.623 362.094 269.184 359.883C268.744 357.673 268.97 355.382 269.832 353.3C270.694 351.217 272.154 349.438 274.028 348.186C275.901 346.934 278.103 346.265 280.357 346.265C281.853 346.263 283.335 346.557 284.718 347.129C286.101 347.701 287.357 348.54 288.415 349.599C289.474 350.657 290.313 351.914 290.885 353.298C291.456 354.681 291.75 356.163 291.748 357.66Z" stroke="#FBFBFB" stroke-width="4" stroke-linecap="round" stroke-linejoin="round"/>
<path d="M825.284 441.485C831.576 441.485 836.676 436.383 836.676 430.09C836.676 423.796 831.576 418.695 825.284 418.695C818.993 418.695 813.893 423.796 813.893 430.09C813.893 436.383 818.993 441.485 825.284 441.485Z" stroke="white" stroke-width="4" stroke-linecap="round" stroke-linejoin="round"/>
<path d="M745.583 549.254C751.874 549.254 756.975 544.152 756.975 537.859C756.975 531.565 751.874 526.464 745.583 526.464C739.292 526.464 734.191 531.565 734.191 537.859C734.191 544.152 739.292 549.254 745.583 549.254Z" stroke="white" stroke-width="4" stroke-linecap="round" stroke-linejoin="round"/>
<path d="M480.854 19.1087C482.126 12.9455 478.163 6.91724 472.002 5.64426C465.841 4.37129 459.814 8.33565 458.542 14.4989C457.269 20.6621 461.232 26.6903 467.393 27.9633C473.555 29.2362 479.581 25.2719 480.854 19.1087Z" stroke="#FBFBFB" stroke-width="4" stroke-linecap="round" stroke-linejoin="round"/>
<path d="M570.027 247.411C576.319 247.411 581.419 242.309 581.419 236.016C581.419 229.722 576.319 224.621 570.027 224.621C563.736 224.621 558.636 229.722 558.636 236.016C558.636 242.309 563.736 247.411 570.027 247.411Z" stroke="#FBFBFB" stroke-width="4" stroke-linecap="round" stroke-linejoin="round"/>
<path d="M196.311 18.6262C197.321 12.4145 193.106 6.55985 186.896 5.54933C180.686 4.53881 174.834 8.75512 173.823 14.9668C172.813 21.1784 177.028 27.0332 183.238 28.0437C189.448 29.0542 195.301 24.8378 196.311 18.6262Z" stroke="#FBFBFB" stroke-width="4" stroke-linecap="round" stroke-linejoin="round"/>
<path d="M25.0585 877.423C26.6901 871.345 23.087 865.095 17.0108 863.463C10.9346 861.831 4.68625 865.435 3.05472 871.513C1.4232 877.591 5.02635 883.841 11.1025 885.473C17.1787 887.105 23.427 883.501 25.0585 877.423Z" stroke="#FBFBFB" stroke-width="4" stroke-linecap="round" stroke-linejoin="round"/>
<path d="M459.272 777.734C463.72 773.284 463.72 766.069 459.272 761.619C454.823 757.169 447.61 757.169 443.162 761.619C438.713 766.069 438.713 773.284 443.162 777.734C447.61 782.184 454.823 782.184 459.272 777.734Z" stroke="white" stroke-width="4" stroke-linecap="round" stroke-linejoin="round"/>
<path d="M312.846 931.436C318.832 929.5 322.116 923.076 320.18 917.088C318.244 911.1 311.822 907.815 305.836 909.751C299.85 911.688 296.566 918.112 298.502 924.1C300.438 930.088 306.86 933.372 312.846 931.436Z" stroke="white" stroke-width="4" stroke-linecap="round" stroke-linejoin="round"/>
<path d="M604.049 891.838C605.359 885.683 601.431 879.631 595.278 878.322C589.124 877.012 583.074 880.941 581.765 887.096C580.456 893.252 584.383 899.304 590.537 900.613C596.691 901.923 602.74 897.994 604.049 891.838Z" stroke="white" stroke-width="4" stroke-linecap="round" stroke-linejoin="round"/>
<path d="M383.756 155.322C429.693 155.322 466.932 137.665 466.932 115.884C466.932 94.1024 429.693 76.4453 383.756 76.4453C337.819 76.4453 300.58 94.1024 300.58 115.884C300.58 137.665 337.819 155.322 383.756 155.322Z" stroke="white" stroke-width="4" stroke-linecap="round" stroke-linejoin="round"/>
<path d="M416.618 140.97C440.505 101.911 444.866 61.0669 426.357 49.7407C407.849 38.4145 373.481 60.8957 349.593 99.9538C325.706 139.012 321.346 179.856 339.854 191.183C358.363 202.509 392.731 180.028 416.618 140.97Z" stroke="white" stroke-width="3.98577" stroke-linecap="round" stroke-linejoin="round"/>
<path d="M422.417 186.03C440.925 174.704 436.565 133.859 412.678 94.8011C388.791 55.743 354.422 33.2618 335.914 44.588C317.405 55.9142 321.766 96.7587 345.653 135.817C369.54 174.875 403.908 197.356 422.417 186.03Z" stroke="white" stroke-width="3.98577" stroke-linecap="round" stroke-linejoin="round"/>
<path d="M383.756 126.324C389.52 126.324 394.193 121.649 394.193 115.884C394.193 110.118 389.52 105.444 383.756 105.444C377.992 105.444 373.319 110.118 373.319 115.884C373.319 121.649 377.992 126.324 383.756 126.324Z" stroke="white" stroke-width="4" stroke-linecap="round" stroke-linejoin="round"/>
<path d="M111.79 744.031C111.79 746.284 111.122 748.488 109.87 750.361C108.619 752.235 106.839 753.696 104.758 754.558C102.676 755.421 100.386 755.646 98.1761 755.207C95.9663 754.767 93.9366 753.682 92.3434 752.088C90.7503 750.495 89.6653 748.464 89.2257 746.254C88.7862 744.043 89.0118 741.752 89.874 739.67C90.7362 737.588 92.1963 735.808 94.0697 734.556C95.943 733.304 98.1455 732.636 100.399 732.636C103.419 732.639 106.314 733.841 108.45 735.977C110.585 738.113 111.787 741.01 111.79 744.031V744.031Z" stroke="white" stroke-width="4" stroke-linecap="round" stroke-linejoin="round"/>
<path d="M222.324 842.845C228.616 842.845 233.716 837.744 233.716 831.45C233.716 825.157 228.616 820.055 222.324 820.055C216.033 820.055 210.933 825.157 210.933 831.45C210.933 837.744 216.033 842.845 222.324 842.845Z" stroke="white" stroke-width="4" stroke-linecap="round" stroke-linejoin="round"/>
<path d="M179.423 808.023C192.841 808.023 203.718 797.143 203.718 783.721C203.718 770.299 192.841 759.419 179.423 759.419C166.005 759.419 155.128 770.299 155.128 783.721C155.128 797.143 166.005 808.023 179.423 808.023Z" stroke="white" stroke-width="4" stroke-linecap="round" stroke-linejoin="round"/>
<path d="M221.767 783.708L213.651 797.888L209.367 813.661L193.6 817.946L179.423 826.064L165.246 817.946L149.479 813.661L145.195 797.888L137.079 783.708L145.195 769.54L149.492 753.768L165.246 749.483L179.423 741.364L193.6 749.483L209.367 753.768L213.651 769.54L221.767 783.708Z" stroke="white" stroke-width="4" stroke-linecap="round" stroke-linejoin="round"/>
<path d="M210.932 831.45C210.936 829.142 211.64 826.89 212.953 824.992C214.265 823.093 216.124 821.639 218.281 820.822C220.439 820.005 222.794 819.863 225.034 820.415C227.275 820.968 229.294 822.188 230.825 823.915C240.859 811.055 245.713 794.902 244.429 778.639C243.146 762.376 235.817 747.185 223.89 736.059C211.962 724.934 196.3 718.682 179.992 718.537C163.685 718.392 147.914 724.363 135.79 735.274C123.666 746.185 116.069 761.244 114.496 777.481C112.923 793.719 117.488 809.956 127.292 822.993C137.096 836.03 151.427 844.919 167.459 847.909C183.491 850.899 200.062 847.771 213.903 839.144C211.984 837.043 210.924 834.297 210.932 831.45Z" stroke="white" stroke-width="4" stroke-linecap="round" stroke-linejoin="round"/>
<path d="M179.423 695.346C164.971 695.334 150.737 698.874 137.973 705.653C125.209 712.433 114.305 722.245 106.22 734.228C108.686 735.705 110.503 738.061 111.305 740.823C112.108 743.585 111.837 746.548 110.546 749.118C109.256 751.688 107.041 753.675 104.348 754.68C101.654 755.685 98.6796 755.634 96.0218 754.537C89.8328 772.232 89.4296 791.438 94.8704 809.378C100.311 827.317 111.314 843.061 126.289 854.334C141.264 865.607 159.434 871.824 178.174 872.087C196.913 872.35 215.251 866.645 230.536 855.798C245.821 844.95 257.261 829.521 263.203 811.741C269.145 793.961 269.281 774.752 263.591 756.89C257.901 739.028 246.68 723.438 231.55 712.375C216.42 701.312 198.165 695.349 179.423 695.346V695.346Z" stroke="white" stroke-width="4" stroke-linecap="round" stroke-linejoin="round"/>
<path d="M641.905 412.394L601.577 452.057C599.528 454.067 596.766 455.181 593.897 455.156C591.028 455.131 588.286 453.969 586.273 451.925C584.265 449.878 583.151 447.117 583.176 444.25C583.201 441.382 584.362 438.641 586.406 436.63L626.734 396.966C627.746 395.97 628.945 395.183 630.261 394.651C631.578 394.118 632.986 393.85 634.406 393.863C635.826 393.875 637.23 394.167 638.537 394.722C639.844 395.278 641.029 396.085 642.024 397.099C643.021 398.11 643.808 399.309 644.342 400.625C644.875 401.942 645.144 403.35 645.133 404.771C645.122 406.191 644.831 407.596 644.277 408.904C643.723 410.212 642.917 411.397 641.905 412.394Z" stroke="white" stroke-width="4" stroke-miterlimit="10" stroke-linecap="round"/>
<path d="M689.447 395.626C715.11 395.626 735.915 374.815 735.915 349.144C735.915 323.472 715.11 302.662 689.447 302.662C663.783 302.662 642.979 323.472 642.979 349.144C642.979 374.815 663.783 395.626 689.447 395.626Z" stroke="white" stroke-width="4" stroke-miterlimit="10" stroke-linecap="round"/>
<path d="M689.447 382.679C707.962 382.679 722.972 367.665 722.972 349.144C722.972 330.623 707.962 315.609 689.447 315.609C670.931 315.609 655.922 330.623 655.922 349.144C655.922 367.665 670.931 382.679 689.447 382.679Z" stroke="white" stroke-width="4" stroke-miterlimit="10" stroke-linecap="round"/>
<path d="M656.585 382.016L643.549 395.056" stroke="white" stroke-width="4" stroke-miterlimit="10" stroke-linecap="round"/>
<path d="M745.044 1010.75L796.601 998.846C797.938 998.537 799.342 998.772 800.506 999.499C801.669 1000.23 802.496 1001.39 802.804 1002.72L805.579 1014.74L743.943 1028.98L741.168 1016.96C740.86 1015.62 741.095 1014.21 741.822 1013.05C742.548 1011.89 743.708 1011.06 745.044 1010.75Z" stroke="white" stroke-width="4" stroke-miterlimit="10" stroke-linecap="round"/>
<path d="M785.237 950.094C812.404 928.182 816.67 888.387 794.764 861.211C772.858 834.035 733.076 829.768 705.908 851.681C678.74 873.594 674.474 913.388 696.38 940.564C718.286 967.74 758.069 972.007 785.237 950.094Z" stroke="white" stroke-width="4" stroke-miterlimit="10"/>
<path d="M775.05 956.836L716.116 845.008L708.756 831.437C690.308 841.165 676.48 857.825 670.312 877.752C664.144 897.679 666.142 919.24 675.867 937.693C685.592 956.147 702.247 969.979 722.168 976.149C742.089 982.319 763.644 980.32 782.092 970.592L774.891 956.928" stroke="white" stroke-width="4" stroke-linecap="round" stroke-linejoin="round"/>
<path d="M729.062 869.518C748.355 859.343 761.097 845.594 757.52 838.808C753.944 832.023 735.404 834.771 716.11 844.947C696.817 855.122 684.075 868.872 687.651 875.657C691.228 882.442 709.768 879.694 729.062 869.518Z" stroke="white" stroke-width="4" stroke-miterlimit="10"/>
<path d="M733.647 962.977C747.748 965.699 762.354 963.532 775.058 956.832C787.761 950.133 797.801 939.302 803.522 926.126C789.422 923.401 774.814 925.568 762.11 932.268C749.407 938.968 739.367 949.8 733.647 962.977V962.977Z" stroke="white" stroke-width="4" stroke-miterlimit="10"/>
<path d="M775.064 956.773C790.496 948.634 789.812 917.002 773.535 886.121C757.258 855.241 731.553 836.805 716.121 844.944C700.688 853.083 701.373 884.715 717.649 915.596C733.926 946.476 759.631 964.912 775.064 956.773Z" stroke="white" stroke-width="4" stroke-miterlimit="10"/>
<path d="M689.686 930.397L801.48 871.446" stroke="white" stroke-width="4" stroke-miterlimit="10"/>
<path d="M763.937 977.477L770.461 1004.7" stroke="white" stroke-width="4" stroke-miterlimit="10"/>
<path d="M736.525 1031.52L815.1 1012.67" stroke="white" stroke-width="4" stroke-miterlimit="10" stroke-linecap="round"/>
<path d="M712.403 94.115C713.067 95.5012 713.306 97.0534 713.088 98.5752C712.871 100.097 712.207 101.52 711.181 102.665C710.155 103.809 708.813 104.624 707.324 105.005C705.835 105.387 704.267 105.318 702.817 104.808C701.367 104.298 700.101 103.37 699.179 102.14C698.257 100.91 697.72 99.4349 697.636 97.8999C697.552 96.3649 697.925 94.8394 698.707 93.5164C699.49 92.1934 700.647 91.1322 702.033 90.4669C703.892 89.5782 706.027 89.4631 707.971 90.1469C709.915 90.8307 711.509 92.2577 712.403 94.115V94.115Z" stroke="white" stroke-width="4" stroke-linecap="round" stroke-linejoin="round"/>
<path d="M726.513 56.9981C727.178 58.3844 727.416 59.9365 727.199 61.4584C726.981 62.9802 726.317 64.4033 725.291 65.5479C724.265 66.6924 722.923 67.507 721.434 67.8885C719.946 68.2701 718.377 68.2016 716.927 67.6916C715.478 67.1816 714.212 66.253 713.289 65.0233C712.367 63.7937 711.83 62.318 711.746 60.783C711.662 59.248 712.035 57.7226 712.817 56.3996C713.6 55.0765 714.757 54.0153 716.143 53.3501C717.063 52.9082 718.062 52.6521 719.081 52.5963C720.1 52.5405 721.121 52.6861 722.084 53.0249C723.047 53.3637 723.934 53.8889 724.694 54.5707C725.454 55.2524 726.072 56.0773 726.513 56.9981V56.9981Z" stroke="white" stroke-width="4" stroke-linecap="round" stroke-linejoin="round"/>
<path d="M823.561 49.3307C824.227 50.7162 824.468 52.2683 824.253 53.7906C824.037 55.313 823.376 56.7374 822.351 57.8835C821.326 59.0296 819.985 59.846 818.496 60.2295C817.008 60.613 815.439 60.5463 813.989 60.0378C812.538 59.5294 811.271 58.6021 810.347 57.3731C809.423 56.1442 808.885 54.6688 808.799 53.1337C808.714 51.5985 809.085 50.0724 809.867 48.7485C810.649 47.4246 811.805 46.3623 813.19 45.6959C815.047 44.8026 817.183 44.6837 819.128 45.3653C821.073 46.0469 822.667 47.4733 823.561 49.3307V49.3307Z" stroke="white" stroke-width="4" stroke-linecap="round" stroke-linejoin="round"/>
<path d="M753.967 107.12L712.543 126.583C710.329 127.624 709.377 130.262 710.417 132.477L713.078 138.145C714.118 140.359 716.756 141.312 718.971 140.271L760.394 120.808C762.608 119.768 763.56 117.129 762.52 114.914L759.859 109.247C758.819 107.032 756.181 106.08 753.967 107.12Z" stroke="white" stroke-width="4" stroke-miterlimit="10" stroke-linecap="round"/>
<path d="M776.443 164.886L756.166 122.676L723.384 138.422L743.647 180.632L756.431 251.258C757.43 253.342 758.83 255.209 760.55 256.752C762.271 258.295 764.278 259.483 766.458 260.249C768.638 261.016 770.948 261.345 773.255 261.218C775.562 261.091 777.822 260.51 779.904 259.509L815.312 242.503C819.516 240.48 822.744 236.87 824.288 232.468C825.832 228.065 825.566 223.229 823.548 219.023L776.443 164.886Z" stroke="white" stroke-width="4" stroke-miterlimit="10" stroke-linecap="round"/>
<path d="M749.416 212.483C749.416 212.483 756.166 201.526 774.149 202.149C792.131 202.773 795.115 186.39 795.115 186.39" stroke="white" stroke-width="4" stroke-miterlimit="10" stroke-linecap="round"/>
<path d="M838.192 66.6761L796.769 86.139C794.555 87.1794 793.603 89.8182 794.643 92.033L797.304 97.7003C798.344 99.9151 800.982 100.867 803.196 99.8269L844.62 80.364C846.834 79.3237 847.786 76.6849 846.746 74.47L844.084 68.8028C843.044 66.5879 840.406 65.6358 838.192 66.6761Z" stroke="white" stroke-width="4" stroke-miterlimit="10" stroke-linecap="round"/>
<path d="M857.762 202.467C859.851 206.823 863.585 210.17 868.141 211.772C872.697 213.374 877.703 213.1 882.057 211.01C886.411 208.921 889.757 205.186 891.359 200.628C892.961 196.071 892.687 191.064 890.597 186.708L840.389 82.2158L807.594 98.0017L857.762 202.467Z" stroke="white" stroke-width="4" stroke-miterlimit="10" stroke-linecap="round"/>
<path d="M857.762 202.467C859.851 206.823 863.585 210.17 868.141 211.772C872.697 213.374 877.703 213.1 882.057 211.01C886.411 208.921 889.757 205.186 891.359 200.628C892.961 196.071 892.687 191.064 890.597 186.708L840.389 82.2158L807.594 98.0017L857.762 202.467Z" stroke="white" stroke-width="4" stroke-miterlimit="10" stroke-linecap="round"/>
<path d="M840.283 166.04C845.852 162.635 852.337 161.037 858.849 161.464C867.085 161.756 872.111 158.479 875.28 154.831" stroke="white" stroke-width="4" stroke-miterlimit="10" stroke-linecap="round"/>
<path d="M252.164 165.852L95.7179 119.11C84.3421 115.711 72.3657 122.181 68.9679 133.56L37.7174 238.219C34.3196 249.598 40.7871 261.578 52.1629 264.977L208.609 311.719C219.985 315.118 231.961 308.648 235.359 297.269L266.61 192.61C270.007 181.231 263.54 169.251 252.164 165.852Z" stroke="white" stroke-width="4" stroke-miterlimit="10" stroke-linecap="round"/>
<path d="M41.4111 225.828L239.06 284.886" stroke="white" stroke-width="4" stroke-miterlimit="10" stroke-linecap="round"/>
<path d="M140.727 272.509C140.432 273.533 139.84 274.445 139.026 275.132C138.212 275.818 137.212 276.247 136.154 276.363C135.095 276.48 134.026 276.279 133.082 275.787C132.138 275.294 131.361 274.532 130.851 273.598C130.341 272.663 130.12 271.598 130.216 270.537C130.313 269.476 130.722 268.468 131.392 267.641C132.063 266.813 132.964 266.204 133.981 265.89C134.998 265.575 136.086 265.571 137.106 265.876C138.459 266.285 139.597 267.21 140.275 268.451C140.952 269.692 141.114 271.15 140.727 272.509Z" fill="white"/>
<path d="M152.536 294.953L108.228 281.715L102.258 301.709L146.566 314.947L152.536 294.953Z" stroke="white" stroke-width="4" stroke-miterlimit="10" stroke-linecap="round"/>
<path d="M85.8633 297.966L162.342 320.822" stroke="white" stroke-width="4" stroke-miterlimit="10" stroke-linecap="round"/>
<path d="M387.435 345.719L349.276 364.171L425.32 521.522L463.479 503.07L387.435 345.719Z" stroke="white" stroke-width="4" stroke-linecap="round" stroke-linejoin="round"/>
<path d="M396.527 364.518L377.457 373.738" stroke="white" stroke-width="4" stroke-linecap="round" stroke-linejoin="round"/>
<path d="M414.152 400.972L395.082 410.205" stroke="white" stroke-width="4" stroke-linecap="round" stroke-linejoin="round"/>
<path d="M431.777 437.426L412.693 446.658" stroke="white" stroke-width="4" stroke-linecap="round" stroke-linejoin="round"/>
<path d="M449.401 473.892L430.317 483.112" stroke="white" stroke-width="4" stroke-linecap="round" stroke-linejoin="round"/>
<path d="M402.362 376.59L392.827 381.193" stroke="white" stroke-width="4" stroke-linecap="round" stroke-linejoin="round"/>
<path d="M408.264 388.781L398.729 393.397" stroke="white" stroke-width="4" stroke-linecap="round" stroke-linejoin="round"/>
<path d="M420.014 413.11L410.479 417.713" stroke="white" stroke-width="4" stroke-linecap="round" stroke-linejoin="round"/>
<path d="M425.915 425.301L416.38 429.917" stroke="white" stroke-width="4" stroke-linecap="round" stroke-linejoin="round"/>
<path d="M437.665 449.63L428.13 454.233" stroke="white" stroke-width="4" stroke-linecap="round" stroke-linejoin="round"/>
<path d="M443.566 461.821L434.031 466.437" stroke="white" stroke-width="4" stroke-linecap="round" stroke-linejoin="round"/>
<path d="M340.63 436.537L329.186 442.068" stroke="white" stroke-width="4" stroke-linecap="round" stroke-linejoin="round"/>
<path d="M358.254 472.99L346.81 478.522" stroke="white" stroke-width="4" stroke-linecap="round" stroke-linejoin="round"/>
<path d="M375.866 509.444L364.435 514.976" stroke="white" stroke-width="4" stroke-linecap="round" stroke-linejoin="round"/>
<path d="M328.841 412.142L323.125 414.914" stroke="white" stroke-width="4" stroke-linecap="round" stroke-linejoin="round"/>
<path d="M334.728 424.346L329.013 427.105" stroke="white" stroke-width="4" stroke-linecap="round" stroke-linejoin="round"/>
<path d="M346.492 448.661L340.776 451.434" stroke="white" stroke-width="4" stroke-linecap="round" stroke-linejoin="round"/>
<path d="M352.38 460.852L346.664 463.625" stroke="white" stroke-width="4" stroke-linecap="round" stroke-linejoin="round"/>
<path d="M364.142 485.181L358.427 487.954" stroke="white" stroke-width="4" stroke-linecap="round" stroke-linejoin="round"/>
<path d="M382.059 522.232L376.33 525.004" stroke="white" stroke-width="4" stroke-linecap="round" stroke-linejoin="round"/>
<path d="M370.044 497.372L364.315 500.145" stroke="white" stroke-width="4" stroke-linecap="round" stroke-linejoin="round"/>
<path d="M305.606 579.34L313.882 381.206L389.936 538.548L305.606 579.34Z" stroke="white" stroke-width="4" stroke-linecap="round" stroke-linejoin="round"/>
<path d="M332.846 537.845L335.1 483.656L355.907 526.702L332.846 537.845Z" stroke="white" stroke-width="4" stroke-linecap="round" stroke-linejoin="round"/>
<path d="M461.404 941.197L491.533 911.059L408.047 827.547L377.918 857.686L461.404 941.197Z" stroke="white" stroke-width="4" stroke-linecap="round" stroke-linejoin="round"/>
<path d="M499.702 949.354L491.532 911.056L461.402 941.196L499.702 949.354Z" stroke="white" stroke-width="4" stroke-linecap="round" stroke-linejoin="round"/>
<path d="M495.882 931.485L481.825 945.547" stroke="white" stroke-width="4" stroke-linecap="round" stroke-linejoin="round"/>
<path d="M408.049 827.543L377.92 857.681L369.058 848.817C367.188 846.946 366.137 844.409 366.137 841.763C366.137 839.118 367.188 836.58 369.058 834.709L385.084 818.679C386.954 816.808 389.491 815.757 392.136 815.757C394.781 815.757 397.317 816.808 399.187 818.679L408.049 827.543Z" stroke="white" stroke-width="4" stroke-linecap="round" stroke-linejoin="round"/>
<path d="M416.195 835.682L386.064 865.834" stroke="white" stroke-width="4" stroke-linecap="round" stroke-linejoin="round"/>
<path d="M476.467 926.126L401.129 850.765" stroke="white" stroke-width="4" stroke-linecap="round" stroke-linejoin="round"/>
</svg>
