<svg width="147" height="168" viewBox="0 0 147 168" fill="none" xmlns="http://www.w3.org/2000/svg">
<path d="M0.179688 86.3716C0.179688 86.3716 35.8148 67.1615 58.6576 82.7264L69.4341 126.915C69.4341 126.915 47.6784 118.951 28.8228 126.915L0.179688 86.3716Z" fill="#35A7FF"/>
<path d="M139.179 86.3716C139.179 86.3716 103.544 67.1615 80.7015 82.7264L69.9092 126.915C69.9092 126.915 91.6649 118.951 110.52 126.915L139.179 86.3716Z" fill="#38618C"/>
<path d="M58.6572 82.7264H80.7014L69.9218 126.915H69.4368L58.6572 82.7264Z" fill="#B8DFFD"/>
<path d="M12.5412 76.2398L8.00879 66.6458C8.00879 66.6458 41.4949 60.9248 62.9369 79.5084H59.5455C59.5455 79.5084 40.8896 67.0476 13.0896 77.6573L12.5412 76.2398Z" fill="#26AB47"/>
<path d="M68.9329 79.5084C68.9329 79.5084 59.3831 41.778 33.0791 40.3984L35.7003 63.4467C35.7003 63.4467 55.6684 65.8136 66.3117 79.5084H68.9329Z" fill="#F18F01"/>
<path d="M126.495 76.2398L131.028 66.6458C131.028 66.6458 97.5479 60.9248 76.1123 79.5084H79.4974C79.4974 79.5084 98.1533 67.0413 125.953 77.6573L126.495 76.2398Z" fill="#26AB47"/>
<path d="M70.1094 79.5084C70.1094 79.5084 79.6592 41.778 105.963 40.3984L103.342 63.4467C103.342 63.4467 83.3739 65.8136 72.7274 79.5084H70.1094Z" fill="#FF5964"/>
<path d="M75.583 46.7047C75.583 46.7047 95.7508 44.3664 92.6034 21.7073C91.4624 13.572 89.9061 7.43021 92.0963 0.915039C92.0963 0.915039 83.8555 6.66446 84.239 20.0745C84.613 32.3328 86.3911 37.3797 75.583 46.7047Z" fill="#35A7FF"/>
<path d="M86.9267 42.895C86.9267 42.895 83.567 52.2074 72.2295 53.6249C61.7415 54.9349 50.9017 47.3629 48.0808 37.1361C48.0808 37.1361 42.4961 20.0176 53.5103 1.25362C53.5103 1.25362 51.2028 27.1719 59.0791 38.6296C59.0791 38.6296 69.6812 55.4222 86.9267 42.895Z" fill="#B8DFFD"/>
<path d="M78.8853 32.241C78.86 33.8355 78.3617 35.3866 77.4534 36.6983C76.545 38.01 75.2674 39.0234 73.7822 39.6102C72.2969 40.197 70.6707 40.3309 69.1092 39.995C67.5478 39.6591 66.1211 38.8685 65.0097 37.7231C63.8983 36.5777 63.1521 35.1291 62.8655 33.5603C62.5788 31.9915 62.7646 30.3731 63.3993 28.9098C64.034 27.4464 65.0891 26.2038 66.4313 25.3391C67.7734 24.4744 69.3422 24.0265 70.9393 24.052C73.0807 24.0861 75.1209 24.968 76.611 26.5037C78.1011 28.0394 78.9192 30.1032 78.8853 32.241Z" fill="#35A7FF"/>
<path d="M52.8389 148.581V144.318C53.5596 145.303 54.3389 145.795 55.1768 145.795C55.4932 145.795 55.751 145.713 55.9502 145.549C56.1494 145.379 56.249 145.168 56.249 144.916C56.249 144.553 56.0322 144.198 55.5986 143.853L55.001 143.387C54.6025 143.088 54.2627 142.792 53.9814 142.499C53.7002 142.2 53.4717 141.896 53.2959 141.585C53.1201 141.269 52.9912 140.943 52.9092 140.609C52.8271 140.275 52.7861 139.924 52.7861 139.555C52.7861 138.922 52.9326 138.26 53.2256 137.568C53.3721 137.246 53.542 136.953 53.7354 136.689C53.9287 136.42 54.1514 136.183 54.4033 135.978C55.0947 135.392 55.9297 135.099 56.9082 135.099C57.7812 135.099 58.6602 135.33 59.5449 135.793V139.941C59.2461 139.479 58.9062 139.115 58.5254 138.852C58.1445 138.582 57.7695 138.447 57.4004 138.447C57.1191 138.447 56.8877 138.529 56.7061 138.693C56.5186 138.852 56.4248 139.042 56.4248 139.265C56.4248 139.628 56.6738 139.988 57.1719 140.346L57.752 140.776C58.5254 141.333 59.0791 141.904 59.4131 142.49C59.7529 143.076 59.9229 143.762 59.9229 144.547C59.9229 145.883 59.5156 146.984 58.7012 147.852C57.8867 148.719 56.8555 149.152 55.6074 149.152C54.7461 149.152 53.8232 148.962 52.8389 148.581Z" fill="#35A7FF"/>
<path d="M65.1105 148.915H61.4455V135.345H65.1105V148.915Z" fill="#35A7FF"/>
<path d="M71.8275 141.066H76.9427V141.629C76.9427 144.242 76.553 146.123 75.7738 147.271C74.9241 148.525 73.6673 149.152 72.0032 149.152C70.3685 149.152 69.0853 148.537 68.1536 147.307C67.2279 146.064 66.765 144.359 66.765 142.191C66.765 139.994 67.2308 138.263 68.1624 136.997C69.0941 135.731 70.3685 135.099 71.9857 135.099C74.1302 135.099 75.6859 136.218 76.6527 138.456L73.1019 139.757C73.0491 139.329 72.9261 138.992 72.7327 138.746C72.5452 138.494 72.3079 138.368 72.0208 138.368C71.013 138.368 70.5091 139.754 70.5091 142.525C70.5091 143.703 70.6204 144.559 70.8431 145.092C71.0657 145.625 71.4202 145.892 71.9066 145.892C72.0999 145.892 72.2757 145.845 72.4339 145.751C72.5921 145.657 72.7239 145.525 72.8294 145.355C72.9407 145.186 73.0257 144.98 73.0843 144.74C73.1488 144.494 73.181 144.222 73.181 143.923H71.8275V141.066Z" fill="#35A7FF"/>
<path d="M78.6059 148.915V135.345H85.4175V138.535H82.271V140.513H85.0923V143.58H82.271V145.654H85.4175V148.915H78.6059Z" fill="#35A7FF"/>
<path d="M6.37891 159.216L5.27148 159.872C5.06445 159.513 4.86719 159.278 4.67969 159.169C4.48438 159.044 4.23242 158.981 3.92383 158.981C3.54492 158.981 3.23047 159.089 2.98047 159.304C2.73047 159.515 2.60547 159.78 2.60547 160.101C2.60547 160.542 2.93359 160.897 3.58984 161.167L4.49219 161.536C5.22656 161.833 5.76367 162.196 6.10352 162.626C6.44336 163.052 6.61328 163.575 6.61328 164.196C6.61328 165.028 6.33594 165.716 5.78125 166.259C5.22266 166.806 4.5293 167.079 3.70117 167.079C2.91602 167.079 2.26758 166.847 1.75586 166.382C1.25195 165.917 0.9375 165.263 0.8125 164.419L2.19531 164.114C2.25781 164.646 2.36719 165.013 2.52344 165.216C2.80469 165.606 3.21484 165.802 3.75391 165.802C4.17969 165.802 4.5332 165.659 4.81445 165.374C5.0957 165.089 5.23633 164.728 5.23633 164.29C5.23633 164.114 5.21094 163.954 5.16016 163.81C5.11328 163.661 5.03711 163.526 4.93164 163.405C4.83008 163.28 4.69727 163.165 4.5332 163.06C4.36914 162.95 4.17383 162.847 3.94727 162.749L3.07422 162.386C1.83594 161.862 1.2168 161.097 1.2168 160.089C1.2168 159.409 1.47656 158.841 1.99609 158.384C2.51562 157.923 3.16211 157.692 3.93555 157.692C4.97852 157.692 5.79297 158.2 6.37891 159.216Z" fill="#B8DFFD"/>
<path d="M9.38617 161.208V166.915H8.06781V161.208H9.38617ZM7.86859 158.835C7.86859 158.604 7.95258 158.405 8.12055 158.237C8.28852 158.069 8.48969 157.985 8.72406 157.985C8.96234 157.985 9.16547 158.069 9.33344 158.237C9.50141 158.401 9.58539 158.603 9.58539 158.841C9.58539 159.079 9.50141 159.282 9.33344 159.45C9.16937 159.618 8.9682 159.702 8.72992 159.702C8.49164 159.702 8.28852 159.618 8.12055 159.45C7.95258 159.282 7.86859 159.077 7.86859 158.835Z" fill="#B8DFFD"/>
<path d="M14.4325 162.181L13.3427 162.761C13.1708 162.409 12.9579 162.233 12.704 162.233C12.5829 162.233 12.4794 162.274 12.3934 162.356C12.3075 162.435 12.2645 162.536 12.2645 162.661C12.2645 162.88 12.5184 163.097 13.0262 163.312C13.7255 163.612 14.1962 163.89 14.4384 164.144C14.6805 164.397 14.8016 164.739 14.8016 165.169C14.8016 165.72 14.5985 166.181 14.1923 166.552C13.7977 166.903 13.3212 167.079 12.7626 167.079C11.8055 167.079 11.1278 166.612 10.7294 165.679L11.8544 165.157C12.0106 165.431 12.1298 165.604 12.2118 165.679C12.372 165.827 12.5634 165.901 12.786 165.901C13.2313 165.901 13.454 165.698 13.454 165.292C13.454 165.058 13.2821 164.839 12.9384 164.636C12.8055 164.569 12.6727 164.505 12.5399 164.442C12.4071 164.38 12.2723 164.315 12.1356 164.249C11.7528 164.062 11.4833 163.874 11.327 163.687C11.1278 163.448 11.0282 163.142 11.0282 162.767C11.0282 162.271 11.1981 161.86 11.538 161.536C11.8856 161.212 12.3075 161.05 12.8036 161.05C13.5341 161.05 14.077 161.427 14.4325 162.181Z" fill="#B8DFFD"/>
<path d="M17.4105 162.438V166.915H16.0921V162.438H15.5296V161.208H16.0921V159.116H17.4105V161.208H18.4359V162.438H17.4105Z" fill="#B8DFFD"/>
<path d="M24.6951 164.372H20.6052C20.6404 164.841 20.7927 165.214 21.0623 165.491C21.3318 165.765 21.6775 165.901 22.0994 165.901C22.4275 165.901 22.699 165.823 22.9138 165.667C23.1248 165.511 23.365 165.222 23.6345 164.8L24.7478 165.421C24.5759 165.714 24.3943 165.966 24.2029 166.177C24.0115 166.384 23.8064 166.556 23.5877 166.692C23.3689 166.825 23.1326 166.923 22.8787 166.985C22.6248 167.048 22.3494 167.079 22.0525 167.079C21.2009 167.079 20.5173 166.806 20.0017 166.259C19.4861 165.708 19.2283 164.978 19.2283 164.067C19.2283 163.165 19.4783 162.435 19.9783 161.876C20.4822 161.325 21.1502 161.05 21.9822 161.05C22.822 161.05 23.4861 161.317 23.9744 161.853C24.4587 162.384 24.7009 163.12 24.7009 164.062L24.6951 164.372ZM23.3416 163.294C23.158 162.591 22.7146 162.239 22.0115 162.239C21.8513 162.239 21.7009 162.265 21.5603 162.315C21.4197 162.362 21.2908 162.433 21.1736 162.526C21.0603 162.616 20.9627 162.726 20.8806 162.854C20.7986 162.983 20.7361 163.13 20.6931 163.294H23.3416Z" fill="#B8DFFD"/>
<path d="M26.2023 161.208H27.5207V161.735C27.7746 161.47 27.9914 161.29 28.1711 161.196C28.3625 161.099 28.6027 161.05 28.8918 161.05C29.5363 161.05 30.0461 161.331 30.4211 161.894C30.8352 161.331 31.3957 161.05 32.1027 161.05C33.3879 161.05 34.0305 161.829 34.0305 163.388V166.915H32.7062V163.745C32.7062 163.198 32.6398 162.812 32.507 162.585C32.3703 162.354 32.1457 162.239 31.8332 162.239C31.4699 162.239 31.2043 162.376 31.0363 162.649C30.8723 162.923 30.7902 163.362 30.7902 163.968V166.915H29.466V163.763C29.466 162.747 29.173 162.239 28.5871 162.239C28.216 162.239 27.9445 162.378 27.7727 162.655C27.6047 162.933 27.5207 163.37 27.5207 163.968V166.915H26.2023V161.208Z" fill="#B8DFFD"/>
<path d="M39.9616 161.208H41.2858V166.915H39.9616V166.317C39.4186 166.825 38.8346 167.079 38.2096 167.079C37.4205 167.079 36.7682 166.794 36.2526 166.224C35.7409 165.642 35.485 164.915 35.485 164.044C35.485 163.188 35.7409 162.476 36.2526 161.905C36.7643 161.335 37.4049 161.05 38.1745 161.05C38.8385 161.05 39.4342 161.323 39.9616 161.87V161.208ZM36.8327 164.044C36.8327 164.591 36.9791 165.036 37.2721 165.38C37.5729 165.728 37.9518 165.901 38.4088 165.901C38.8971 165.901 39.2916 165.733 39.5924 165.397C39.8932 165.05 40.0436 164.608 40.0436 164.073C40.0436 163.538 39.8932 163.097 39.5924 162.749C39.2916 162.409 38.901 162.239 38.4205 162.239C37.9674 162.239 37.5885 162.411 37.2838 162.755C36.983 163.103 36.8327 163.532 36.8327 164.044Z" fill="#B8DFFD"/>
<path d="M50.98 157.019H52.3042V166.915H50.98V166.317C50.4605 166.825 49.8726 167.079 49.2163 167.079C48.4351 167.079 47.7866 166.794 47.271 166.224C46.7593 165.642 46.5034 164.915 46.5034 164.044C46.5034 163.192 46.7593 162.481 47.271 161.911C47.7788 161.337 48.4175 161.05 49.187 161.05C49.855 161.05 50.4527 161.323 50.98 161.87V157.019ZM47.8511 164.044C47.8511 164.591 47.9976 165.036 48.2905 165.38C48.5913 165.728 48.9702 165.901 49.4273 165.901C49.9155 165.901 50.3101 165.733 50.6109 165.397C50.9116 165.05 51.062 164.608 51.062 164.073C51.062 163.538 50.9116 163.097 50.6109 162.749C50.3101 162.409 49.9195 162.239 49.439 162.239C48.9859 162.239 48.607 162.411 48.3023 162.755C48.0015 163.103 47.8511 163.532 47.8511 164.044Z" fill="#B8DFFD"/>
<path d="M59.2255 164.372H55.1357C55.1709 164.841 55.3232 165.214 55.5927 165.491C55.8623 165.765 56.208 165.901 56.6298 165.901C56.958 165.901 57.2295 165.823 57.4443 165.667C57.6552 165.511 57.8955 165.222 58.165 164.8L59.2783 165.421C59.1064 165.714 58.9248 165.966 58.7334 166.177C58.542 166.384 58.3369 166.556 58.1181 166.692C57.8994 166.825 57.663 166.923 57.4091 166.985C57.1552 167.048 56.8798 167.079 56.583 167.079C55.7314 167.079 55.0478 166.806 54.5322 166.259C54.0166 165.708 53.7588 164.978 53.7588 164.067C53.7588 163.165 54.0088 162.435 54.5088 161.876C55.0127 161.325 55.6806 161.05 56.5127 161.05C57.3525 161.05 58.0166 161.317 58.5048 161.853C58.9892 162.384 59.2314 163.12 59.2314 164.062L59.2255 164.372ZM57.872 163.294C57.6884 162.591 57.2451 162.239 56.542 162.239C56.3818 162.239 56.2314 162.265 56.0908 162.315C55.9502 162.362 55.8213 162.433 55.7041 162.526C55.5908 162.616 55.4931 162.726 55.4111 162.854C55.3291 162.983 55.2666 163.13 55.2236 163.294H57.872Z" fill="#B8DFFD"/>
<path d="M69.4002 162.204H73.1385V162.503C73.1385 163.183 73.0584 163.784 72.8983 164.308C72.742 164.792 72.4784 165.245 72.1073 165.667C71.2674 166.612 70.1991 167.085 68.9022 167.085C67.6366 167.085 66.5526 166.628 65.6502 165.714C64.7479 164.796 64.2967 163.694 64.2967 162.409C64.2967 161.097 64.7557 159.983 65.6737 159.069C66.5916 158.151 67.7088 157.692 69.0252 157.692C69.7323 157.692 70.3924 157.837 71.0057 158.126C71.5916 158.415 72.1678 158.884 72.7342 159.532L71.7616 160.464C71.0194 159.476 70.1151 158.981 69.0487 158.981C68.0916 158.981 67.2889 159.312 66.6405 159.972C65.992 160.62 65.6678 161.433 65.6678 162.409C65.6678 163.417 66.0291 164.247 66.7518 164.899C67.4276 165.505 68.16 165.808 68.9491 165.808C69.6209 165.808 70.2245 165.581 70.7596 165.128C71.2948 164.671 71.5936 164.124 71.6561 163.487H69.4002V162.204Z" fill="#B8DFFD"/>
<path d="M79.8665 164.372H75.7766C75.8118 164.841 75.9641 165.214 76.2337 165.491C76.5032 165.765 76.8489 165.901 77.2708 165.901C77.5989 165.901 77.8704 165.823 78.0852 165.667C78.2962 165.511 78.5364 165.222 78.8059 164.8L79.9192 165.421C79.7473 165.714 79.5657 165.966 79.3743 166.177C79.1829 166.384 78.9778 166.556 78.7591 166.692C78.5403 166.825 78.304 166.923 78.0501 166.985C77.7962 167.048 77.5208 167.079 77.2239 167.079C76.3723 167.079 75.6888 166.806 75.1731 166.259C74.6575 165.708 74.3997 164.978 74.3997 164.067C74.3997 163.165 74.6497 162.435 75.1497 161.876C75.6536 161.325 76.3216 161.05 77.1536 161.05C77.9934 161.05 78.6575 161.317 79.1458 161.853C79.6302 162.384 79.8723 163.12 79.8723 164.062L79.8665 164.372ZM78.513 163.294C78.3294 162.591 77.886 162.239 77.1829 162.239C77.0227 162.239 76.8723 162.265 76.7317 162.315C76.5911 162.362 76.4622 162.433 76.345 162.526C76.2317 162.616 76.1341 162.726 76.052 162.854C75.97 162.983 75.9075 163.13 75.8645 163.294H78.513Z" fill="#B8DFFD"/>
<path d="M84.6902 162.181L83.6003 162.761C83.4284 162.409 83.2155 162.233 82.9616 162.233C82.8405 162.233 82.737 162.274 82.6511 162.356C82.5652 162.435 82.5222 162.536 82.5222 162.661C82.5222 162.88 82.7761 163.097 83.2839 163.312C83.9831 163.612 84.4538 163.89 84.696 164.144C84.9382 164.397 85.0593 164.739 85.0593 165.169C85.0593 165.72 84.8562 166.181 84.4499 166.552C84.0554 166.903 83.5788 167.079 83.0202 167.079C82.0632 167.079 81.3855 166.612 80.987 165.679L82.112 165.157C82.2683 165.431 82.3874 165.604 82.4695 165.679C82.6296 165.827 82.821 165.901 83.0437 165.901C83.489 165.901 83.7116 165.698 83.7116 165.292C83.7116 165.058 83.5398 164.839 83.196 164.636C83.0632 164.569 82.9304 164.505 82.7976 164.442C82.6648 164.38 82.53 164.315 82.3933 164.249C82.0105 164.062 81.7409 163.874 81.5847 163.687C81.3855 163.448 81.2859 163.142 81.2859 162.767C81.2859 162.271 81.4558 161.86 81.7956 161.536C82.1433 161.212 82.5652 161.05 83.0612 161.05C83.7917 161.05 84.3347 161.427 84.6902 162.181Z" fill="#B8DFFD"/>
<path d="M87.6681 162.438V166.915H86.3498V162.438H85.7873V161.208H86.3498V159.116H87.6681V161.208H88.6935V162.438H87.6681Z" fill="#B8DFFD"/>
<path d="M93.857 161.208H95.1813V166.915H93.857V166.317C93.3141 166.825 92.7301 167.079 92.1051 167.079C91.316 167.079 90.6637 166.794 90.148 166.224C89.6363 165.642 89.3805 164.915 89.3805 164.044C89.3805 163.188 89.6363 162.476 90.148 161.905C90.6598 161.335 91.3004 161.05 92.0699 161.05C92.734 161.05 93.3297 161.323 93.857 161.87V161.208ZM90.7281 164.044C90.7281 164.591 90.8746 165.036 91.1676 165.38C91.4684 165.728 91.8473 165.901 92.3043 165.901C92.7926 165.901 93.1871 165.733 93.4879 165.397C93.7887 165.05 93.9391 164.608 93.9391 164.073C93.9391 163.538 93.7887 163.097 93.4879 162.749C93.1871 162.409 92.7965 162.239 92.316 162.239C91.8629 162.239 91.484 162.411 91.1793 162.755C90.8785 163.103 90.7281 163.532 90.7281 164.044ZM90.8688 160.235L90.1012 159.585L90.2711 159.345C90.3805 159.188 90.4859 159.058 90.5875 158.952C90.6891 158.843 90.7926 158.755 90.898 158.688C91.0035 158.618 91.1129 158.569 91.2262 158.542C91.3395 158.511 91.4625 158.495 91.5953 158.495C91.9 158.495 92.2535 158.597 92.6559 158.8C93.0621 159.007 93.3238 159.11 93.441 159.11C93.6598 159.11 93.902 158.899 94.1676 158.478L94.9117 159.099C94.5367 159.849 94.0289 160.224 93.3883 160.224C93.1695 160.224 92.8121 160.114 92.316 159.896C91.9605 159.716 91.6949 159.626 91.5191 159.626C91.3043 159.626 91.0875 159.829 90.8688 160.235Z" fill="#B8DFFD"/>
<path d="M96.6358 164.021C96.6358 163.196 96.9307 162.495 97.5205 161.917C98.1104 161.339 98.8291 161.05 99.6768 161.05C100.528 161.05 101.251 161.341 101.845 161.923C102.431 162.505 102.724 163.22 102.724 164.067C102.724 164.923 102.429 165.64 101.839 166.218C101.245 166.792 100.517 167.079 99.6534 167.079C98.7979 167.079 98.0811 166.786 97.503 166.2C96.9248 165.622 96.6358 164.896 96.6358 164.021ZM97.9834 164.044C97.9834 164.614 98.1358 165.065 98.4405 165.397C98.753 165.733 99.1651 165.901 99.6768 165.901C100.192 165.901 100.605 165.735 100.913 165.403C101.222 165.071 101.376 164.628 101.376 164.073C101.376 163.519 101.222 163.075 100.913 162.743C100.601 162.407 100.189 162.239 99.6768 162.239C99.1729 162.239 98.7647 162.407 98.4522 162.743C98.1397 163.079 97.9834 163.513 97.9834 164.044Z" fill="#B8DFFD"/>
<path d="M113.191 159.151H109.564V161.325H113.086V162.608H109.564V165.632H113.191V166.915H108.199V157.868H113.191V159.151Z" fill="#B8DFFD"/>
<path d="M118.109 162.181L117.019 162.761C116.847 162.409 116.634 162.233 116.38 162.233C116.259 162.233 116.156 162.274 116.07 162.356C115.984 162.435 115.941 162.536 115.941 162.661C115.941 162.88 116.195 163.097 116.702 163.312C117.402 163.612 117.872 163.89 118.115 164.144C118.357 164.397 118.478 164.739 118.478 165.169C118.478 165.72 118.275 166.181 117.869 166.552C117.474 166.903 116.997 167.079 116.439 167.079C115.482 167.079 114.804 166.612 114.406 165.679L115.531 165.157C115.687 165.431 115.806 165.604 115.888 165.679C116.048 165.827 116.24 165.901 116.462 165.901C116.908 165.901 117.13 165.698 117.13 165.292C117.13 165.058 116.958 164.839 116.615 164.636C116.482 164.569 116.349 164.505 116.216 164.442C116.083 164.38 115.949 164.315 115.812 164.249C115.429 164.062 115.16 163.874 115.003 163.687C114.804 163.448 114.704 163.142 114.704 162.767C114.704 162.271 114.874 161.86 115.214 161.536C115.562 161.212 115.984 161.05 116.48 161.05C117.21 161.05 117.753 161.427 118.109 162.181Z" fill="#B8DFFD"/>
<path d="M124.169 161.454V163.206C123.868 162.839 123.598 162.587 123.36 162.45C123.126 162.31 122.85 162.239 122.534 162.239C122.038 162.239 121.626 162.413 121.298 162.761C120.97 163.108 120.805 163.544 120.805 164.067C120.805 164.603 120.964 165.042 121.28 165.386C121.6 165.729 122.009 165.901 122.505 165.901C122.821 165.901 123.1 165.833 123.343 165.696C123.577 165.563 123.852 165.306 124.169 164.923V166.663C123.634 166.94 123.098 167.079 122.563 167.079C121.68 167.079 120.942 166.794 120.348 166.224C119.755 165.649 119.458 164.937 119.458 164.085C119.458 163.233 119.759 162.515 120.36 161.929C120.962 161.343 121.7 161.05 122.575 161.05C123.137 161.05 123.669 161.185 124.169 161.454Z" fill="#B8DFFD"/>
<path d="M125.237 164.021C125.237 163.196 125.531 162.495 126.121 161.917C126.711 161.339 127.43 161.05 128.278 161.05C129.129 161.05 129.852 161.341 130.446 161.923C131.031 162.505 131.324 163.22 131.324 164.067C131.324 164.923 131.03 165.64 130.44 166.218C129.846 166.792 129.117 167.079 128.254 167.079C127.399 167.079 126.682 166.786 126.104 166.2C125.526 165.622 125.237 164.896 125.237 164.021ZM126.584 164.044C126.584 164.614 126.737 165.065 127.041 165.397C127.354 165.733 127.766 165.901 128.278 165.901C128.793 165.901 129.205 165.735 129.514 165.403C129.823 165.071 129.977 164.628 129.977 164.073C129.977 163.519 129.823 163.075 129.514 162.743C129.201 162.407 128.789 162.239 128.278 162.239C127.774 162.239 127.365 162.407 127.053 162.743C126.74 163.079 126.584 163.513 126.584 164.044Z" fill="#B8DFFD"/>
<path d="M134.103 157.019V166.915H132.785V157.019H134.103Z" fill="#B8DFFD"/>
<path d="M140.04 161.208H141.364V166.915H140.04V166.317C139.497 166.825 138.913 167.079 138.288 167.079C137.499 167.079 136.847 166.794 136.331 166.224C135.819 165.642 135.564 164.915 135.564 164.044C135.564 163.188 135.819 162.476 136.331 161.905C136.843 161.335 137.484 161.05 138.253 161.05C138.917 161.05 139.513 161.323 140.04 161.87V161.208ZM136.911 164.044C136.911 164.591 137.058 165.036 137.351 165.38C137.651 165.728 138.03 165.901 138.487 165.901C138.976 165.901 139.37 165.733 139.671 165.397C139.972 165.05 140.122 164.608 140.122 164.073C140.122 163.538 139.972 163.097 139.671 162.749C139.37 162.409 138.98 162.239 138.499 162.239C138.046 162.239 137.667 162.411 137.362 162.755C137.062 163.103 136.911 163.532 136.911 164.044Z" fill="#B8DFFD"/>
<path d="M143.088 161.208H144.407V161.718C144.649 161.464 144.864 161.29 145.051 161.196C145.243 161.099 145.469 161.05 145.731 161.05C146.079 161.05 146.442 161.163 146.821 161.39L146.217 162.597C145.967 162.417 145.723 162.327 145.485 162.327C144.766 162.327 144.407 162.87 144.407 163.956V166.915H143.088V161.208Z" fill="#B8DFFD"/>
</svg>
